<?xml version="1.0" standalone="no"?>
<!DOCTYPE svg PUBLIC "-//W3C//DTD SVG 20010904//EN"
 "http://www.w3.org/TR/2001/REC-SVG-20010904/DTD/svg10.dtd">
<svg version="1.0" xmlns="http://www.w3.org/2000/svg"
 width="391.000000pt" height="391.000000pt" viewBox="0 0 391.000000 391.000000"
 preserveAspectRatio="xMidYMid meet">
<metadata>
Created by potrace 1.14, written by Peter Selinger 2001-2017
</metadata>
<g transform="translate(0.000000,391.000000) scale(0.100000,-0.100000)"
fill="#000000" stroke="none">
<path d="M1975 3130 c-16 -5 -51 -14 -77 -21 -36 -8 -59 -23 -92 -59 -56 -60
-76 -107 -76 -179 1 -73 13 -105 93 -240 37 -62 71 -129 77 -149 5 -20 21 -56
35 -80 13 -23 22 -49 19 -57 -8 -19 -99 -75 -123 -75 -10 0 -26 -9 -35 -19
-34 -37 -262 -53 -301 -21 -14 11 -96 40 -116 40 -9 0 -34 13 -55 28 -81 57
-201 112 -247 112 -9 0 -34 9 -54 20 -21 11 -44 20 -51 20 -8 0 -41 15 -75 34
-34 19 -82 37 -107 41 -25 4 -69 20 -99 36 -30 16 -59 29 -64 29 -9 0 -156 85
-209 122 -15 10 -32 18 -37 18 -5 0 -22 7 -38 16 -27 16 -31 16 -85 -10 -37
-17 -64 -39 -77 -60 -39 -63 -26 -88 85 -174 124 -96 213 -154 304 -201 36
-19 72 -38 80 -43 8 -4 30 -15 48 -23 18 -9 64 -31 104 -50 39 -19 76 -35 82
-35 6 0 28 -9 49 -20 20 -11 46 -20 57 -20 12 0 45 -16 75 -35 30 -19 83 -46
117 -61 33 -14 70 -31 82 -39 25 -16 96 -29 96 -18 0 4 -15 18 -33 31 -34 23
-170 92 -182 92 -3 0 -23 13 -43 28 -20 16 -64 37 -97 47 -33 10 -65 22 -71
27 -6 4 -55 26 -109 48 -54 23 -112 52 -129 65 -17 12 -73 44 -124 69 -51 26
-113 62 -138 82 -26 19 -61 41 -78 48 -17 8 -57 37 -88 66 -70 62 -74 86 -22
125 30 23 43 26 76 22 22 -3 47 -12 56 -20 21 -19 169 -97 183 -97 6 0 25 -10
42 -22 52 -37 139 -75 189 -82 27 -4 60 -17 75 -30 33 -27 111 -56 153 -56 16
0 32 -4 35 -10 3 -5 17 -10 29 -10 13 0 29 -7 36 -15 10 -12 104 -69 213 -127
37 -20 184 -64 242 -73 44 -6 167 18 200 39 11 8 46 22 76 31 31 10 77 33 103
51 40 30 46 39 46 70 0 19 -10 54 -23 77 -12 23 -28 60 -36 82 -7 22 -19 47
-26 55 -24 30 -115 203 -125 239 -16 59 -12 109 15 164 26 54 78 97 118 97 12
0 48 9 80 20 55 18 62 19 130 4 83 -18 95 -24 171 -81 45 -36 56 -49 60 -80 3
-21 13 -76 23 -123 27 -139 27 -177 -1 -275 -25 -87 -33 -170 -18 -190 24 -33
97 -50 150 -35 43 11 274 177 397 285 39 33 104 89 145 123 95 78 250 227 229
219 -27 -9 -171 -121 -224 -174 -27 -28 -63 -58 -80 -69 -16 -10 -59 -44 -95
-75 -36 -30 -81 -66 -100 -79 -19 -14 -48 -37 -65 -52 -16 -15 -35 -28 -41
-28 -6 0 -40 -22 -74 -50 -53 -42 -69 -50 -105 -50 -63 0 -80 23 -72 100 4 34
12 70 18 81 24 45 22 150 -5 254 -14 55 -26 112 -26 128 0 16 -7 41 -16 55
-16 28 -98 96 -143 121 -63 35 -214 51 -286 31z"/>
<path d="M3610 3119 c-81 -14 -105 -22 -131 -43 -14 -12 -35 -26 -45 -33 -76
-49 -118 -81 -122 -91 -7 -23 25 -12 78 28 29 22 63 43 74 46 12 4 29 13 39
22 12 11 41 15 104 16 118 1 118 4 18 -152 -17 -26 -43 -68 -58 -94 -39 -68
-125 -157 -254 -265 -135 -113 -573 -547 -573 -568 0 -9 9 -15 22 -15 15 0 96
75 267 249 135 137 282 280 326 317 125 105 213 194 248 253 18 29 43 67 57
85 14 17 32 42 40 56 61 106 66 145 20 178 -31 23 -38 24 -110 11z"/>
</g>
</svg>
